/* XPM */
static char *_9eb3e549f234f5fdfd39285437c0295STZRdQ3EHALktzv6[] = {
/* columns rows colors chars-per-pixel */
"16 16 7 1 ",
"  c None",
". c #141B1B",
"X c #8F3E56",
"o c #965340",
"O c #A3754E",
"+ c #D3865F",
"@ c #FFAD5D",
/* pixels */
" ...        ... ",
" .O..........O. ",
".XOX++++++++XOX.",
".XXX++++++++XXX.",
" .X.oooooooo.X. ",
" ...++++++++... ",
"   .@++++++@.   ",
"   .@@@@@@@@.   ",
"   .@@@@@@@@.   ",
"   .@@@@@@@@.   ",
" ...@@@@@@@@... ",
" .O.@@@@@@@@.O. ",
".XOX++@@@@++XOX.",
".XX.++++++++.XX.",
" .X..........X. ",
" ...        ... "
};
